<svg xmlns="http://www.w3.org/2000/svg" xmlns:xlink="http://www.w3.org/1999/xlink" width="500" zoomAndPan="magnify" viewBox="0 0 375 374.999991" height="500" preserveAspectRatio="xMidYMid meet" version="1.0"><defs><clipPath id="5283e575ec"><path d="M 237 99.175781 L 319 99.175781 L 319 276.175781 L 237 276.175781 Z M 237 99.175781 " clip-rule="nonzero"/></clipPath><clipPath id="3491ba9ca5"><path d="M 132 180 L 261 180 L 261 276.175781 L 132 276.175781 Z M 132 180 " clip-rule="nonzero"/></clipPath></defs><rect x="-37.5" width="450" fill="#ffffff" y="-37.499999" height="449.999989" fill-opacity="1"/><rect x="-37.5" width="450" fill="#ffffff" y="-37.499999" height="449.999989" fill-opacity="1"/><path fill="#5e17eb" d="M 67.339844 187.796875 C 71.195312 187.796875 74.324219 184.664062 74.324219 180.804688 C 74.324219 176.941406 71.195312 173.8125 67.339844 173.8125 L 64.703125 173.8125 C 62.207031 173.8125 59.902344 175.144531 58.65625 177.308594 C 55.96875 181.96875 59.328125 187.796875 64.703125 187.796875 L 67.339844 187.796875 " fill-opacity="1" fill-rule="nonzero"/><path fill="#5e17eb" d="M 89.515625 187.796875 L 116.601562 187.796875 C 120.457031 187.796875 123.585938 184.664062 123.585938 180.804688 C 123.585938 176.941406 120.457031 173.8125 116.601562 173.8125 L 89.515625 173.8125 C 85.660156 173.8125 82.53125 176.941406 82.53125 180.804688 C 82.53125 184.664062 85.660156 187.796875 89.515625 187.796875 " fill-opacity="1" fill-rule="nonzero"/><path fill="#8c52ff" d="M 83.773438 217.042969 C 83.929688 217.050781 84.085938 217.058594 84.242188 217.058594 L 134.78125 217.058594 C 138.640625 217.058594 141.765625 213.925781 141.765625 210.066406 C 141.765625 206.203125 138.640625 203.070312 134.78125 203.070312 L 97.886719 203.070312 C 92.734375 207.25 88.003906 211.933594 83.773438 217.042969 " fill-opacity="1" fill-rule="nonzero"/><g clip-path="url(#5283e575ec)"><path fill="#5e17eb" d="M 316.667969 188.804688 L 284.589844 133.152344 C 288.996094 128.816406 301.75 115.007812 303.214844 99.179688 C 303.210938 99.1875 290.730469 142.175781 237.347656 141.523438 L 262.851562 200.832031 C 268.074219 212.96875 265.007812 226.589844 256.171875 235.363281 C 254.773438 236.753906 253.230469 238.015625 251.554688 239.132812 C 256.769531 250.496094 259.921875 263.003906 260.53125 276.179688 L 266.304688 276.179688 C 271.195312 276.179688 275.710938 273.566406 278.15625 269.328125 L 316.667969 202.511719 C 319.113281 198.269531 319.113281 193.046875 316.667969 188.804688 " fill-opacity="1" fill-rule="nonzero"/></g><path fill="#5e17eb" d="M 120.628906 158.539062 L 145.730469 158.539062 C 149.585938 158.539062 152.710938 155.40625 152.710938 151.542969 C 152.710938 147.683594 149.585938 144.550781 145.730469 144.550781 L 120.449219 144.550781 C 117.566406 144.550781 114.9375 146.332031 113.902344 149.117188 C 111.992188 154.25 115.164062 158.539062 120.628906 158.539062 " fill-opacity="1" fill-rule="nonzero"/><path fill="#5e17eb" d="M 78.195312 213.5625 C 79.363281 215.585938 81.460938 216.886719 83.773438 217.042969 C 88.003906 211.933594 92.734375 207.25 97.886719 203.070312 L 84.242188 203.070312 C 78.867188 203.070312 75.507812 208.898438 78.195312 213.5625 " fill-opacity="1" fill-rule="nonzero"/><g clip-path="url(#3491ba9ca5)"><path fill="#8c52ff" d="M 246.570312 241.847656 C 230.765625 248.667969 212.433594 241.367188 205.621094 225.539062 C 200.914062 214.59375 202.945312 202.441406 209.867188 193.726562 C 195.355469 185.503906 178.585938 180.804688 160.722656 180.804688 C 151.097656 180.804688 141.792969 182.167969 132.984375 184.714844 C 134.238281 186.574219 136.367188 187.796875 138.777344 187.796875 L 182.835938 187.796875 C 186.96875 187.796875 190.492188 191.019531 190.636719 195.15625 C 190.789062 199.5 187.320312 203.070312 183.019531 203.070312 L 156.957031 203.070312 C 153.101562 203.070312 149.972656 206.203125 149.972656 210.066406 C 149.972656 213.925781 153.101562 217.058594 156.957031 217.058594 L 173.0625 217.058594 C 177.195312 217.058594 180.714844 220.277344 180.863281 224.414062 C 181.015625 228.757812 177.546875 232.332031 173.246094 232.332031 L 156.550781 232.332031 C 151.085938 232.332031 147.914062 236.621094 149.820312 241.75 C 150.859375 244.539062 153.488281 246.316406 156.371094 246.316406 L 193.382812 246.316406 C 197.519531 246.316406 201.039062 249.539062 201.1875 253.675781 C 201.339844 258.019531 197.871094 261.589844 193.566406 261.589844 L 172.972656 261.589844 L 177.433594 269.328125 C 179.878906 273.566406 184.394531 276.179688 189.285156 276.179688 L 260.53125 276.179688 C 259.921875 263.003906 256.769531 250.496094 251.554688 239.132812 C 250.003906 240.171875 248.34375 241.082031 246.570312 241.847656 " fill-opacity="1" fill-rule="nonzero"/></g><path fill="#5e17eb" d="M 209.867188 193.726562 C 212.960938 189.835938 217.027344 186.628906 221.90625 184.519531 C 224.546875 183.378906 227.257812 182.636719 229.972656 182.261719 C 234.488281 181.632812 239.015625 182.023438 243.261719 183.3125 L 228.386719 148.710938 L 217.921875 124.390625 C 217.921875 124.390625 247.417969 126.753906 274.015625 117.527344 C 271.777344 115.996094 269.105469 115.136719 266.304688 115.136719 L 189.285156 115.136719 C 184.394531 115.136719 179.878906 117.75 177.433594 121.992188 L 173.234375 129.277344 L 188.683594 129.277344 C 192.820312 129.277344 196.339844 132.496094 196.488281 136.636719 C 196.640625 140.980469 193.171875 144.550781 188.867188 144.550781 L 167.902344 144.550781 C 164.046875 144.550781 160.921875 147.683594 160.921875 151.542969 C 160.921875 155.40625 164.046875 158.539062 167.902344 158.539062 L 213.523438 158.539062 C 217.660156 158.539062 221.179688 161.757812 221.324219 165.894531 C 221.480469 170.242188 218.011719 173.8125 213.707031 173.8125 L 138.777344 173.8125 C 134.921875 173.8125 131.796875 176.941406 131.796875 180.804688 C 131.796875 182.25 132.234375 183.597656 132.984375 184.714844 C 141.792969 182.167969 151.097656 180.804688 160.722656 180.804688 C 178.585938 180.804688 195.355469 185.503906 209.867188 193.726562 " fill-opacity="1" fill-rule="nonzero"/></svg>